<?xml version="1.0" encoding="UTF-8"?>
<svg version="1.1" xmlns="http://www.w3.org/2000/svg" width="525" height="475">
<path d="M0 0 C0.87443298 -0.00044756 1.74886596 -0.00089512 2.6497969 -0.00135624 C5.59255305 -0.00030244 8.53505495 0.01523273 11.47776794 0.0307312 C13.58377959 0.03460837 15.6897929 0.03765538 17.79580688 0.03993225 C23.53278724 0.04903793 29.26964595 0.07128466 35.00657392 0.09687662 C39.80840287 0.11742648 44.6102434 0.13240594 49.41209167 0.14763629 C60.76671836 0.18406082 72.12126027 0.23190925 83.47581482 0.28610229 C95.13431578 0.34149124 106.79273735 0.37514656 118.45134312 0.39820969 C128.48916741 0.41901596 138.5268639 0.45512091 148.56459659 0.50273407 C154.54577648 0.53087005 160.52682859 0.55322787 166.50807381 0.560215 C224.90163316 0.64258642 224.90163316 0.64258642 248.85057068 9.16696167 C250.39659973 9.69072388 250.39659973 9.69072388 251.97386169 10.22506714 C254.83731094 11.2036255 257.68846622 12.21144074 260.53807068 13.22946167 C261.90523229 13.70219279 263.27241618 14.17485949 264.63963318 14.64743042 C270.54070747 16.78259664 275.7969183 19.34681667 281.09275818 22.70993042 C283.60203628 24.26921026 286.16485272 25.6219655 288.78807068 26.97946167 C299.1121042 32.56435551 308.3653718 39.88956456 317.33103943 47.41696167 C319.60642301 49.34681231 319.60642301 49.34681231 322.53807068 51.22946167 C322.53807068 51.88946167 322.53807068 52.54946167 322.53807068 53.22946167 C323.19807068 53.22946167 323.85807068 53.22946167 324.53807068 53.22946167 C325.89194004 54.87948995 327.2248521 56.54690037 328.53807068 58.22946167 C329.19807068 58.55946167 329.85807068 58.88946167 330.53807068 59.22946167 C330.53807068 59.88946167 330.53807068 60.54946167 330.53807068 61.22946167 C331.19807068 61.22946167 331.85807068 61.22946167 332.53807068 61.22946167 C335.08543204 63.6921462 337.26836283 66.51189959 339.53807068 69.22946167 C340.2109613 70.00418823 340.88385193 70.77891479 341.57713318 71.57711792 C357.94455597 90.83115891 369.22176067 112.4949019 377.53807068 136.22946167 C377.79072693 136.93957397 378.04338318 137.64968628 378.30369568 138.38131714 C384.23305366 155.25116411 387.62388064 173.34777084 387.77635193 191.22946167 C387.78614578 192.17467178 387.79593964 193.1198819 387.80603027 194.09373474 C388.12871904 233.28044015 388.12871904 233.28044015 383.53807068 251.22946167 C383.31312927 252.13825073 383.08818787 253.04703979 382.85643005 253.98336792 C379.96993494 265.41802349 376.32620967 276.44419968 371.53807068 287.22946167 C371.24174744 287.90428589 370.94542419 288.57911011 370.64012146 289.27438354 C359.49878908 314.43334874 343.32123969 337.97900859 322.53807068 356.22946167 C321.87807068 356.22946167 321.21807068 356.22946167 320.53807068 356.22946167 C320.53807068 356.88946167 320.53807068 357.54946167 320.53807068 358.22946167 C318.55635867 359.98826925 316.57236066 361.61699362 314.47557068 363.22946167 C313.84360779 363.71858032 313.2116449 364.20769897 312.56053162 364.7116394 C286.57158868 384.58798809 258.04074743 398.0494445 225.91307068 404.60446167 C225.15751892 404.75995483 224.40196716 404.915448 223.6235199 405.07565308 C210.02417396 407.65855468 196.21305066 407.37382254 182.43357849 407.3588562 C180.32493561 407.36021339 178.21629296 407.3619951 176.10765076 407.36416626 C170.41844627 407.36869947 164.72926005 407.36696893 159.04005527 407.36378717 C153.0801444 407.36124625 147.12023504 407.36360556 141.1603241 407.36517334 C131.16742167 407.36698828 121.17452666 407.36460467 111.18162537 407.35983276 C99.61556192 407.35437355 88.04951606 407.3561675 76.48345304 407.36165917 C66.54779956 407.36618826 56.61215139 407.3668424 46.67649722 407.3642205 C40.74378848 407.36265889 34.81108803 407.36246116 28.87837982 407.36575699 C23.31333587 407.36863333 17.74831478 407.36666445 12.18327332 407.36086273 C10.13573495 407.35953462 8.08819467 407.35993011 6.04065704 407.3621254 C3.25878294 407.36483444 0.47698341 407.36145904 -2.30488586 407.35644531 C-3.1257684 407.35867603 -3.94665094 407.36090676 -4.7924087 407.36320508 C-10.34777828 407.34361271 -10.34777828 407.34361271 -11.46192932 406.22946167 C-11.56266073 404.08908983 -11.59117815 401.94532251 -11.59335709 399.80258274 C-11.59643604 398.77859631 -11.59643604 398.77859631 -11.59957719 397.73392329 C-11.60528806 395.4176856 -11.60378495 393.10150661 -11.60237122 390.78526306 C-11.60495251 389.11940534 -11.607965 387.45354824 -11.61137462 385.78769201 C-11.61947548 381.18757368 -11.62123589 376.58747092 -11.62197208 371.98734629 C-11.62381728 367.0349915 -11.63136183 362.08264489 -11.6381073 357.1302948 C-11.65171257 346.29172352 -11.65771862 335.45315593 -11.66211796 324.61457753 C-11.66487642 317.85336112 -11.66911301 311.09214615 -11.67362213 304.33093071 C-11.68581718 285.62921393 -11.69611634 266.9274983 -11.69949722 248.22577763 C-11.69971679 247.02790092 -11.69993636 245.83002422 -11.70016257 244.59584823 C-11.70048999 242.79461828 -11.70048999 242.79461828 -11.70082402 240.95699984 C-11.7012675 238.52348777 -11.70171406 236.08997569 -11.7021637 233.65646362 C-11.70238513 232.44934538 -11.70260656 231.24222713 -11.7028347 229.99852955 C-11.70678523 210.42575149 -11.72424598 190.85301061 -11.74752322 171.28024692 C-11.77120171 151.20892386 -11.78369746 131.13761948 -11.78486514 111.06628221 C-11.78578383 99.78733735 -11.79158467 88.50844092 -11.80968475 77.22950935 C-11.82503851 67.6277736 -11.83023426 58.02610126 -11.82194665 48.42435557 C-11.81802343 43.52088287 -11.81905065 38.61753802 -11.833004 33.71408081 C-11.84564338 29.23159968 -11.84463418 24.74934378 -11.83241329 20.2668634 C-11.83043885 18.63900633 -11.83361415 17.01113384 -11.84225765 15.38329852 C-11.85320955 13.18264648 -11.84596481 10.98280936 -11.83386612 8.78218174 C-11.83446321 7.55622715 -11.8350603 6.33027255 -11.83567548 5.06716782 C-11.71233925 4.13072479 -11.58900301 3.19428176 -11.46192932 2.22946167 C-7.60783423 -0.33993506 -4.46608512 -0.03797939 0 0 Z " fill="#93A480" transform="translate(83.46192932128906,33.770538330078125)"/>
<path d="M0 0 C4.37422181 2.28562941 9.21315333 2.74914296 14.0390625 3.609375 C33.03116002 7.33337139 46.73671507 15.61943504 58.33203125 31.27734375 C60.14785557 34.25529563 60.94761549 36.94431841 61.6015625 40.359375 C62.2615625 40.359375 62.9215625 40.359375 63.6015625 40.359375 C70.25730769 60.44546318 70.25730769 60.44546318 66.37890625 69.08203125 C62.23477861 75.57743699 56.06923195 81.48943205 48.6484375 84.02734375 C46.0950225 84.44154275 43.62590466 84.56714084 41.0390625 84.609375 C40.08902344 84.63515625 39.13898438 84.6609375 38.16015625 84.6875 C35.1261452 84.29840545 34.56378236 83.59880597 32.6015625 81.359375 C31.93898438 81.03839844 31.27640625 80.71742188 30.59375 80.38671875 C23.47340654 76.71485536 18.33249457 65.24719748 15.78125 58.04296875 C14.29770347 52.20281022 14.40002834 46.34941809 14.6015625 40.359375 C13.2815625 40.029375 11.9615625 39.699375 10.6015625 39.359375 C10.83581898 54.72336876 11.56751349 69.01836165 17.6015625 83.359375 C18.2615625 83.359375 18.9215625 83.359375 19.6015625 83.359375 C22.99328519 85.40652191 24.8454393 87.82967993 26.6015625 91.359375 C27.83150571 98.05983842 27.30244214 105.02309523 27.1015625 111.796875 C27.07499673 113.6789949 27.05152914 115.56116124 27.03125 117.44335938 C26.83045757 131.13047993 26.83045757 131.13047993 25.6015625 132.359375 C23.69061311 132.45596404 21.77604384 132.48124692 19.86265564 132.47962952 C18.61598618 132.48100418 17.36931671 132.48237885 16.08486938 132.48379517 C14.69061256 132.48025556 13.29635597 132.47662074 11.90209961 132.47290039 C10.44384259 132.47261853 8.98558543 132.47277624 7.52732849 132.4733429 C3.55642765 132.4736309 -0.41444325 132.46773377 -4.38533711 132.46076894 C-8.53068851 132.45453581 -12.67604052 132.45393163 -16.82139587 132.45274353 C-24.67663077 132.44963009 -32.53185182 132.44141654 -40.38708061 132.43139404 C-49.32768149 132.42023329 -58.26828302 132.41472255 -67.20888913 132.40969861 C-85.60541311 132.39923393 -104.0019242 132.38163425 -122.3984375 132.359375 C-122.52223081 126.75439478 -122.61286768 121.15021378 -122.6730957 115.54418945 C-122.69820749 113.63812393 -122.73230395 111.73215441 -122.77563477 109.82641602 C-122.83643494 107.08325502 -122.86467995 104.34136914 -122.88671875 101.59765625 C-122.91252518 100.74851151 -122.9383316 99.89936676 -122.96492004 99.02449036 C-122.96699202 94.63287176 -122.90850948 92.96050014 -119.96948242 89.49682617 C-119.1210376 88.79146729 -118.27259277 88.0861084 -117.3984375 87.359375 C-115.72961815 83.93768651 -115.72961815 83.93768651 -114.3984375 80.359375 C-113.8828125 79.43125 -113.3671875 78.503125 -112.8359375 77.546875 C-110.90970322 73.27565986 -110.17136828 68.96058646 -109.3984375 64.359375 C-108.7384375 64.359375 -108.0784375 64.359375 -107.3984375 64.359375 C-107.7284375 57.099375 -108.0584375 49.839375 -108.3984375 42.359375 C-110.65379843 47.62188384 -111.55975493 50.07631164 -112.11328125 55.33984375 C-113.48619998 65.06311752 -120.00905069 75.14967384 -127.7109375 81.046875 C-133.00264962 84.68559794 -138.12271051 85.13940886 -144.3984375 84.359375 C-151.03688055 82.13376982 -155.35455001 78.99630908 -159.3984375 73.359375 C-160.23375 72.5859375 -160.23375 72.5859375 -161.0859375 71.796875 C-165.36455322 67.11077207 -164.80993026 60.86144055 -164.7109375 54.921875 C-164.26117068 49.79453321 -162.74338232 45.89537763 -160.3984375 41.359375 C-159.9859375 40.48925781 -159.5734375 39.61914062 -159.1484375 38.72265625 C-153.83516587 28.14139656 -145.12154003 15.26707584 -133.3984375 11.359375 C-132.12618222 10.88399668 -130.85548056 10.40444985 -129.5859375 9.921875 C-128.54179687 9.54095703 -128.54179687 9.54095703 -127.4765625 9.15234375 C-125.56529924 8.42304593 -123.69713522 7.58334238 -121.8359375 6.734375 C-115.73777321 4.39081488 -108.86149976 4.60342292 -102.3984375 4.359375 C-101.9034375 2.874375 -101.9034375 2.874375 -101.3984375 1.359375 C-100.07540033 0.9872708 -98.74105815 0.65307327 -97.3984375 0.359375 C-97.0684375 -0.300625 -96.7384375 -0.960625 -96.3984375 -1.640625 C-94.49115765 -2.3767681 -92.5805233 -3.1056368 -90.65234375 -3.78515625 C-87.79589278 -4.86932048 -85.14500997 -6.23741353 -82.453125 -7.67578125 C-57.42553171 -19.42828228 -22.61943883 -15.47258031 0 0 Z " fill="#FDFDFD" transform="translate(296.3984375,129.640625)"/>
<path d="M0 0 C19.2795303 -0.02332767 38.55905774 -0.04097853 57.83859921 -0.05181217 C66.78978382 -0.05697541 75.74095968 -0.06401863 84.69213867 -0.07543945 C92.49110388 -0.08538545 100.29006276 -0.09185322 108.08903414 -0.09408849 C112.22112186 -0.09539575 116.35319144 -0.09848251 120.48527336 -0.10573006 C124.37001526 -0.11248894 128.25473146 -0.11461723 132.13947868 -0.11310768 C133.56939839 -0.11338407 134.99931891 -0.11538998 136.42923355 -0.11920547 C138.37318051 -0.12414059 140.31714109 -0.12239805 142.26109314 -0.12025452 C143.35157424 -0.12117631 144.44205534 -0.1220981 145.56558132 -0.12304783 C148 0 148 0 149 1 C150.26229626 17.75411403 150.28092913 36.90279588 142 52 C141.36964844 53.28390625 141.36964844 53.28390625 140.7265625 54.59375 C132.35554687 71.05828903 117.88424585 85.4223856 100.09375 91.42578125 C96.74130944 92.39418582 93.40945596 93.25996305 90 94 C89.23099365 94.176521 88.4619873 94.35304199 87.66967773 94.53491211 C84.81074007 95.03297121 82.16261512 95.11316906 79.26171875 95.09765625 C77.66166992 95.09282227 77.66166992 95.09282227 76.02929688 95.08789062 C74.37510742 95.07532227 74.37510742 95.07532227 72.6875 95.0625 C71.56537109 95.05798828 70.44324219 95.05347656 69.28710938 95.04882812 C66.5246849 95.03707313 63.76237002 95.02064077 61 95 C61 94.34 61 93.68 61 93 C59.845 92.95875 58.69 92.9175 57.5 92.875 C46.09691014 91.57591381 35.43510479 86.66982311 27 79 C26.34 78.49082031 25.68 77.98164063 25 77.45703125 C18.56141596 72.36401067 14.48614365 65.76903332 10 59 C9.47148437 58.34902344 8.94296875 57.69804687 8.3984375 57.02734375 C6.49312763 54.26517665 5.53953595 51.41446685 4.4375 48.25 C4.02371094 47.07953125 3.60992187 45.9090625 3.18359375 44.703125 C1.02967949 37.96414573 -0.30283858 32.08895859 -0.1953125 25 C-0.1924826 24.2788501 -0.18965271 23.5577002 -0.18673706 22.81469727 C-0.17566696 20.54295253 -0.15058895 18.27162273 -0.125 16 C-0.1149531 14.44662033 -0.10583027 12.8932344 -0.09765625 11.33984375 C-0.07577111 7.55973938 -0.04133514 3.77993968 0 0 Z " fill="#95A482" transform="translate(174,270)"/>
<path d="M0 0 C19.2795303 -0.02332767 38.55905774 -0.04097853 57.83859921 -0.05181217 C66.78978382 -0.05697541 75.74095968 -0.06401863 84.69213867 -0.07543945 C92.49110388 -0.08538545 100.29006276 -0.09185322 108.08903414 -0.09408849 C112.22112186 -0.09539575 116.35319144 -0.09848251 120.48527336 -0.10573006 C124.37001526 -0.11248894 128.25473146 -0.11461723 132.13947868 -0.11310768 C133.56939839 -0.11338407 134.99931891 -0.11538998 136.42923355 -0.11920547 C138.37318051 -0.12414059 140.31714109 -0.12239805 142.26109314 -0.12025452 C143.35157424 -0.12117631 144.44205534 -0.1220981 145.56558132 -0.12304783 C148 0 148 0 149 1 C150.26229626 17.75411403 150.28092913 36.90279588 142 52 C141.36964844 53.28390625 141.36964844 53.28390625 140.7265625 54.59375 C132.35554687 71.05828903 117.88424585 85.4223856 100.09375 91.42578125 C96.74130944 92.39418582 93.40945596 93.25996305 90 94 C89.23099365 94.176521 88.4619873 94.35304199 87.66967773 94.53491211 C84.81074007 95.03297121 82.16261512 95.11316906 79.26171875 95.09765625 C77.66166992 95.09282227 77.66166992 95.09282227 76.02929688 95.08789062 C74.37510742 95.07532227 74.37510742 95.07532227 72.6875 95.0625 C71.56537109 95.05798828 70.44324219 95.05347656 69.28710938 95.04882812 C66.5246849 95.03707313 63.76237002 95.02064077 61 95 C61 94.34 61 93.68 61 93 C59.845 92.95875 58.69 92.9175 57.5 92.875 C46.09691014 91.57591381 35.43510479 86.66982311 27 79 C26.34 78.49082031 25.68 77.98164063 25 77.45703125 C18.56141596 72.36401067 14.48614365 65.76903332 10 59 C9.47148437 58.34902344 8.94296875 57.69804687 8.3984375 57.02734375 C6.49312763 54.26517665 5.53953595 51.41446685 4.4375 48.25 C4.02371094 47.07953125 3.60992187 45.9090625 3.18359375 44.703125 C1.02967949 37.96414573 -0.30283858 32.08895859 -0.1953125 25 C-0.1924826 24.2788501 -0.18965271 23.5577002 -0.18673706 22.81469727 C-0.17566696 20.54295253 -0.15058895 18.27162273 -0.125 16 C-0.1149531 14.44662033 -0.10583027 12.8932344 -0.09765625 11.33984375 C-0.07577111 7.55973938 -0.04133514 3.77993968 0 0 Z M10 11 C9.61402631 25.03727851 9.61402631 25.03727851 11.8125 37.9375 C12.0609668 38.92266602 12.0609668 38.92266602 12.31445312 39.92773438 C13.26965555 43.45657654 14.25608807 45.60544555 17 48 C17.921875 49.7265625 17.921875 49.7265625 18.75 51.625 C25.90112805 66.30222161 38.69437177 76.29595898 53.6875 82.02734375 C66.33304103 85.92518807 82.65976843 85.85084761 95 81 C95.94875 80.64035156 96.8975 80.28070313 97.875 79.91015625 C100.26755167 78.9763965 102.63848162 78.00915211 105 77 C105 76.34 105 75.68 105 75 C105.88171875 74.75765625 106.7634375 74.5153125 107.671875 74.265625 C118.62673879 70.09969088 127.78761177 57.43824891 132.91601562 47.16503906 C138.27308097 35.08926767 137 24.56294245 137 11 C95.09 11 53.18 11 10 11 Z " fill="#F8F9F7" transform="translate(174,270)"/>
<path d="M0 0 C0.87443298 -0.00044756 1.74886596 -0.00089512 2.6497969 -0.00135624 C5.59255305 -0.00030244 8.53505495 0.01523273 11.47776794 0.0307312 C13.58377959 0.03460837 15.6897929 0.03765538 17.79580688 0.03993225 C23.53278724 0.04903793 29.26964595 0.07128466 35.00657392 0.09687662 C39.80840287 0.11742648 44.6102434 0.13240594 49.41209167 0.14763629 C60.76671836 0.18406082 72.12126027 0.23190925 83.47581482 0.28610229 C95.13431578 0.34149124 106.79273735 0.37514656 118.45134312 0.39820969 C128.48916741 0.41901596 138.5268639 0.45512091 148.56459659 0.50273407 C154.54577648 0.53087005 160.52682859 0.55322787 166.50807381 0.560215 C225.53073403 0.64367596 225.53073403 0.64367596 251.53807068 10.22946167 C248.21303488 11.32806921 246.03565377 11.10624857 242.65916443 10.26852417 C241.73812927 10.04422729 240.81709412 9.81993042 239.8681488 9.58883667 C238.91359802 9.34649292 237.95904724 9.10414917 236.97557068 8.85446167 C236.01715271 8.61985229 235.05873474 8.38524292 234.0712738 8.14352417 C230.51580138 7.26649103 227.01341184 6.38790872 223.53807068 5.22946167 C209.36089294 3.07476262 194.99742372 2.92565261 180.69309998 2.91061401 C178.56792994 2.90117383 176.44276351 2.89089064 174.3176012 2.87984657 C168.69580862 2.85290464 163.07404161 2.83729528 157.45220184 2.82426453 C152.15059081 2.8101921 146.84904735 2.78559109 141.54747009 2.76193237 C126.1068759 2.69902066 110.6662176 2.65272692 95.22557068 2.60446167 C43.40525818 2.41883667 43.40525818 2.41883667 -9.46192932 2.22946167 C-9.46192932 135.54946167 -9.46192932 268.86946167 -9.46192932 406.22946167 C42.32744568 406.07477417 42.32744568 406.07477417 95.16307068 405.91696167 C111.46447449 405.87961914 111.46447449 405.87961914 128.09519958 405.84152222 C137.90909594 405.80492156 137.90909594 405.80492156 147.72297668 405.76445007 C152.06535408 405.74664552 156.4076652 405.7369362 160.75007629 405.73234558 C166.31570712 405.72618711 171.88112148 405.70562054 177.44667125 405.67530024 C179.47259461 405.66659262 181.49854644 405.66264221 183.52448773 405.66442239 C202.03243141 405.67574411 220.10302391 403.79444105 238.03807068 399.10446167 C240.11055041 398.57929684 242.18345389 398.05580084 244.25682068 397.53414917 C245.17978943 397.30050659 246.10275818 397.06686401 247.05369568 396.82614136 C249.86412261 396.15115281 252.67583624 395.63135075 255.53807068 395.22946167 C252.82533833 397.94219402 249.75922408 398.57074956 246.16307068 399.60446167 C245.41573669 399.8207019 244.66840271 400.03694214 243.89842224 400.25973511 C238.07465569 401.89519285 232.21303397 403.26440577 226.28807068 404.47946167 C225.51028259 404.64236694 224.73249451 404.80527222 223.93113708 404.97311401 C210.22887953 407.65653219 196.3301774 407.37394975 182.43357849 407.3588562 C180.32493561 407.36021339 178.21629296 407.3619951 176.10765076 407.36416626 C170.41844627 407.36869947 164.72926005 407.36696893 159.04005527 407.36378717 C153.0801444 407.36124625 147.12023504 407.36360556 141.1603241 407.36517334 C131.16742167 407.36698828 121.17452666 407.36460467 111.18162537 407.35983276 C99.61556192 407.35437355 88.04951606 407.3561675 76.48345304 407.36165917 C66.54779956 407.36618826 56.61215139 407.3668424 46.67649722 407.3642205 C40.74378848 407.36265889 34.81108803 407.36246116 28.87837982 407.36575699 C23.31333587 407.36863333 17.74831478 407.36666445 12.18327332 407.36086273 C10.13573495 407.35953462 8.08819467 407.35993011 6.04065704 407.3621254 C3.25878294 407.36483444 0.47698341 407.36145904 -2.30488586 407.35644531 C-3.1257684 407.35867603 -3.94665094 407.36090676 -4.7924087 407.36320508 C-10.34777828 407.34361271 -10.34777828 407.34361271 -11.46192932 406.22946167 C-11.56266073 404.08908983 -11.59117815 401.94532251 -11.59335709 399.80258274 C-11.59643604 398.77859631 -11.59643604 398.77859631 -11.59957719 397.73392329 C-11.60528806 395.4176856 -11.60378495 393.10150661 -11.60237122 390.78526306 C-11.60495251 389.11940534 -11.607965 387.45354824 -11.61137462 385.78769201 C-11.61947548 381.18757368 -11.62123589 376.58747092 -11.62197208 371.98734629 C-11.62381728 367.0349915 -11.63136183 362.08264489 -11.6381073 357.1302948 C-11.65171257 346.29172352 -11.65771862 335.45315593 -11.66211796 324.61457753 C-11.66487642 317.85336112 -11.66911301 311.09214615 -11.67362213 304.33093071 C-11.68581718 285.62921393 -11.69611634 266.9274983 -11.69949722 248.22577763 C-11.69971679 247.02790092 -11.69993636 245.83002422 -11.70016257 244.59584823 C-11.70048999 242.79461828 -11.70048999 242.79461828 -11.70082402 240.95699984 C-11.7012675 238.52348777 -11.70171406 236.08997569 -11.7021637 233.65646362 C-11.70238513 232.44934538 -11.70260656 231.24222713 -11.7028347 229.99852955 C-11.70678523 210.42575149 -11.72424598 190.85301061 -11.74752322 171.28024692 C-11.77120171 151.20892386 -11.78369746 131.13761948 -11.78486514 111.06628221 C-11.78578383 99.78733735 -11.79158467 88.50844092 -11.80968475 77.22950935 C-11.82503851 67.6277736 -11.83023426 58.02610126 -11.82194665 48.42435557 C-11.81802343 43.52088287 -11.81905065 38.61753802 -11.833004 33.71408081 C-11.84564338 29.23159968 -11.84463418 24.74934378 -11.83241329 20.2668634 C-11.83043885 18.63900633 -11.83361415 17.01113384 -11.84225765 15.38329852 C-11.85320955 13.18264648 -11.84596481 10.98280936 -11.83386612 8.78218174 C-11.83446321 7.55622715 -11.8350603 6.33027255 -11.83567548 5.06716782 C-11.71233925 4.13072479 -11.58900301 3.19428176 -11.46192932 2.22946167 C-7.60783423 -0.33993506 -4.46608512 -0.03797939 0 0 Z " fill="#E5E7E1" transform="translate(83.46192932128906,33.770538330078125)"/>
<path d="M0 0 C4.29 0 8.58 0 13 0 C13.2475 1.93875 13.495 3.8775 13.75 5.875 C15.78044267 18.72519884 21.21168013 29.62155233 31.5 37.9375 C38.90307098 43.23082208 46.17760429 45.85927163 55 48 C55 48.33 55 48.66 55 49 C39.36245955 49.54975728 39.36245955 49.54975728 32 46 C30.73093605 45.47487009 29.46012936 44.95392931 28.1875 44.4375 C25 43 25 43 22 41 C22 40.34 22 39.68 22 39 C21.43667969 38.93425781 20.87335938 38.86851562 20.29296875 38.80078125 C17.06309207 37.67280047 15.56703218 35.73269914 13.3125 33.1875 C12.52488281 32.31480469 11.73726562 31.44210937 10.92578125 30.54296875 C9.15711057 28.20746243 8.39238175 26.85308083 8 24 C7.34 24 6.68 24 6 24 C5.65066406 23.07316406 5.30132812 22.14632813 4.94140625 21.19140625 C4.48636719 19.99386719 4.03132812 18.79632813 3.5625 17.5625 C3.11003906 16.36753906 2.65757812 15.17257812 2.19140625 13.94140625 C1.2855174 11.15554277 1.2855174 11.15554277 0 10 C-0.14257189 6.66381769 -0.04228157 3.34024394 0 0 Z " fill="#F5F6F4" transform="translate(197,293)"/>
<path d="M0 0 C10.21176167 2.20253683 19.72943014 5.87600467 28.5546875 11.48046875 C31.0639656 13.03974859 33.62678204 14.39250383 36.25 15.75 C46.57403352 21.33489384 55.82730112 28.66010289 64.79296875 36.1875 C67.06835233 38.11735064 67.06835233 38.11735064 70 40 C70 40.66 70 41.32 70 42 C70.66 42 71.32 42 72 42 C73.35386936 43.65002828 74.68678142 45.3174387 76 47 C76.66 47.33 77.32 47.66 78 48 C78 48.66 78 49.32 78 50 C78.66 50 79.32 50 80 50 C82.54736136 52.46268453 84.73029215 55.28243792 87 58 C87.67289062 58.77472656 88.34578125 59.54945312 89.0390625 60.34765625 C105.40648529 79.60169724 116.68368999 101.26544023 125 125 C125.25265625 125.7101123 125.5053125 126.42022461 125.765625 127.15185547 C131.69494959 144.02160746 135.08601921 162.11837834 135.23828125 180 C135.24798447 180.94552734 135.25768768 181.89105469 135.26768494 182.86523438 C135.29253447 185.91019966 135.30519857 188.95494357 135.3125 192 C135.31642761 193.55267578 135.31642761 193.55267578 135.32043457 195.13671875 C135.32459348 210.44149814 134.80946406 225.09451311 131 240 C130.80792969 240.76183594 130.61585938 241.52367187 130.41796875 242.30859375 C129.40008692 246.2485581 128.27914139 250.13536006 127 254 C126.67 254 126.34 254 126 254 C126.84709501 246.03923209 128.52462008 238.28850642 130.18359375 230.46289062 C132.6498283 218.50384204 133.18656828 206.84655977 133.18530273 194.66821289 C133.18747998 192.33395885 133.20567636 190.00018604 133.22460938 187.66601562 C133.28053268 173.30604805 131.73348704 159.59769156 128.25 145.625 C127.98759521 144.55846191 127.72519043 143.49192383 127.45483398 142.39306641 C120.88832634 116.2877203 109.99497428 92.70557667 94 71 C93.59056152 70.44103027 93.18112305 69.88206055 92.75927734 69.30615234 C81.49290557 54.0477252 67.92103764 40.73199772 52.5 29.6875 C51.7268042 29.1320752 50.9536084 28.57665039 50.15698242 28.00439453 C44.96735487 24.31331094 39.70161108 20.76812034 34.3125 17.375 C33.67828125 16.97369873 33.0440625 16.57239746 32.390625 16.15893555 C28.39643456 13.69383738 24.36374878 11.76247519 20 10 C19.00097656 9.58878906 18.00195312 9.17757812 16.97265625 8.75390625 C16.01230469 8.36074219 15.05195313 7.96757813 14.0625 7.5625 C9.25673064 5.56765234 4.61690758 3.39724047 0 1 C0 0.67 0 0.34 0 0 Z " fill="#EEEFEC" transform="translate(336,45)"/>
<path d="M0 0 C27.84421358 -0.09381125 55.68840317 -0.16415838 83.53274345 -0.20724869 C96.46394029 -0.22779597 109.39503843 -0.25576522 122.32617188 -0.30175781 C133.60863128 -0.34186707 144.89101913 -0.36748959 156.17354786 -0.37635398 C162.13695655 -0.38152828 168.10016071 -0.3935227 174.06350327 -0.42292023 C232.68158309 -0.70044369 232.68158309 -0.70044369 259 9 C255.6749642 10.09860754 253.49758309 9.8767869 250.12109375 9.0390625 C249.20005859 8.81476562 248.27902344 8.59046875 247.33007812 8.359375 C246.37552734 8.11703125 245.42097656 7.8746875 244.4375 7.625 C243.47908203 7.39039063 242.52066406 7.15578125 241.53320312 6.9140625 C237.9777307 6.03702936 234.47534116 5.15844705 231 4 C216.88294501 1.85768666 202.58225105 1.69614051 188.33862305 1.68115234 C186.26658246 1.67182321 184.19454553 1.66165028 182.12251282 1.65071106 C176.57022215 1.62373289 171.01795636 1.60835877 165.4656179 1.59528303 C159.63605167 1.57950944 153.80653527 1.55276569 147.977005 1.5272522 C136.97044069 1.48071367 125.96386674 1.44385001 114.95725518 1.41057932 C102.41284037 1.37218035 89.8684759 1.32281757 77.32410371 1.27259517 C51.54943992 1.16964666 25.77474371 1.08026726 0 1 C0 0.67 0 0.34 0 0 Z " fill="#DADDD5" transform="translate(76,35)"/>
<path d="M0 0 C0.495 0.99 0.495 0.99 1 2 C-0.06624471 4.49094205 -1.19189199 6.84989195 -2.4375 9.25 C-2.80367432 9.96510742 -3.16984863 10.68021484 -3.54711914 11.41699219 C-4.68433113 13.61886442 -5.83792404 15.8111583 -7 18 C-7.33773437 18.63679688 -7.67546875 19.27359375 -8.0234375 19.9296875 C-17.72740323 38.01787962 -31.50646142 55.3945629 -47 69 C-47.66 69 -48.32 69 -49 69 C-49 69.66 -49 70.32 -49 71 C-50.98163318 72.75873762 -52.9660487 74.38725986 -55.0625 76 C-55.68793701 76.48549316 -56.31337402 76.97098633 -56.95776367 77.47119141 C-82.43769639 97 -82.43769639 97 -89 97 C-89 96.34 -89 95.68 -89 95 C-88.47792969 94.72027344 -87.95585937 94.44054687 -87.41796875 94.15234375 C-69.76601361 84.53805645 -54.03235547 72.40162798 -40 58 C-39.46632813 57.51144531 -38.93265625 57.02289063 -38.3828125 56.51953125 C-22.9509815 42.01617141 -11.5998602 22.97434891 -2.49609375 4.03515625 C-1 1 -1 1 0 0 Z " fill="#E2E4DD" transform="translate(453,321)"/>
<path d="M0 0 C27.39673909 -0.56541929 53.91224265 -0.61542718 80 9 C76.6749642 10.09860754 74.49758309 9.8767869 71.12109375 9.0390625 C69.73954102 8.70261719 69.73954102 8.70261719 68.33007812 8.359375 C67.37552734 8.11703125 66.42097656 7.8746875 65.4375 7.625 C63.99987305 7.27308594 63.99987305 7.27308594 62.53320312 6.9140625 C58.9777307 6.03702936 55.47534116 5.15844705 52 4 C49.08146271 3.61566587 46.17872687 3.28428882 43.25 3 C42.35708252 2.91314941 41.46416504 2.82629883 40.54418945 2.73681641 C27.06799435 1.53376608 13.52011286 1.32318995 0 1 C0 0.67 0 0.34 0 0 Z " fill="#E6E8E2" transform="translate(255,35)"/>
<path d="M0 0 C1.32 0.33 2.64 0.66 4 1 C4 3.97 4 6.94 4 10 C3.67 8.68 3.34 7.36 3 6 C2.34 6 1.68 6 1 6 C1.33 12.6 1.66 19.2 2 26 C2.66 26 3.32 26 4 26 C4.12117188 26.85464844 4.24234375 27.70929688 4.3671875 28.58984375 C4.53476562 29.69457031 4.70234375 30.79929688 4.875 31.9375 C5.11863281 33.59072266 5.11863281 33.59072266 5.3671875 35.27734375 C5.57601563 36.17582031 5.78484375 37.07429688 6 38 C6.66 38.33 7.32 38.66 8 39 C8 40.32 8 41.64 8 43 C8.66 43 9.32 43 10 43 C9.67 43.99 9.34 44.98 9 46 C9 45.34 9 44.68 9 44 C8.34 44 7.68 44 7 44 C-0.97987875 29.96642013 -0.39192901 15.6831899 0 0 Z " fill="#B5BCA9" transform="translate(307,169)"/>
<path d="M0 0 C0.61327148 0.19134521 1.22654297 0.38269043 1.85839844 0.57983398 C-0.7028622 1.87400799 -3.26553515 3.16524183 -5.82910156 4.45483398 C-6.55033203 4.81963867 -7.2715625 5.18444336 -8.01464844 5.56030273 C-18.28472238 10.71878736 -18.28472238 10.71878736 -21.45410156 10.20483398 C-22.01097656 9.99858398 -22.56785156 9.79233398 -23.14160156 9.57983398 C-22.14160156 7.57983398 -22.14160156 7.57983398 -18.93847656 6.39624023 C-17.59182107 5.97091043 -16.24271972 5.55326729 -14.89160156 5.14233398 C-11.17409384 4.00702575 -7.72398732 2.94673701 -4.40722656 0.85717773 C-2.14160156 -0.42016602 -2.14160156 -0.42016602 0 0 Z " fill="#CFD3C5" transform="translate(362.1416015625,418.420166015625)"/>
<path d="M0 0 C2.20192224 3.30288336 2.23959968 4.27462727 2.1953125 8.10546875 C2.18564453 9.57983398 2.18564453 9.57983398 2.17578125 11.08398438 C2.15902344 12.10814453 2.14226562 13.13230469 2.125 14.1875 C2.11597656 15.22326172 2.10695312 16.25902344 2.09765625 17.32617188 C2.0740786 19.88434685 2.0411703 22.44205748 2 25 C1.67 25 1.34 25 1 25 C0.67 19.72 0.34 14.44 0 9 C-0.66 11.97 -1.32 14.94 -2 18 C-2.33 18 -2.66 18 -3 18 C-3.36517527 11.42684522 -2.13619737 6.20514474 0 0 Z " fill="#B5BBAA" transform="translate(187,169)"/>
<path d="M0 0 C1.09726581 3.29179743 0.96382036 3.83384758 -0.14453125 6.94140625 C-0.40943359 7.68970703 -0.67433594 8.43800781 -0.94726562 9.20898438 C-1.37555664 10.37397461 -1.37555664 10.37397461 -1.8125 11.5625 C-2.08642578 12.34302734 -2.36035156 13.12355469 -2.64257812 13.92773438 C-4.73030029 19.73030029 -4.73030029 19.73030029 -7 22 C-7.042721 20.33388095 -7.04063832 18.66617115 -7 17 C-6.67 16.67 -6.34 16.34 -6 16 C-5.63039006 14.55043603 -5.30340007 13.08985345 -5 11.625 C-4.45118408 8.99239863 -3.85272538 6.55817615 -3 4 C-2.34 4 -1.68 4 -1 4 C-0.67 2.68 -0.34 1.36 0 0 Z " fill="#C9CFBF" transform="translate(461,299)"/>
<path d="M0 0 C2.94576612 2.43345897 3.56133256 4.2369733 4 8 C4.11675687 10.49805406 4.17499625 12.99925013 4.1875 15.5 C4.20167969 16.7890625 4.21585937 18.078125 4.23046875 19.40625 C4.01276983 22.80087728 3.58344038 25.0151873 2 28 C-0.125 29.3125 -0.125 29.3125 -2 30 C-0.87548273 27.0280615 0.22293791 24.66559313 2 22 C2.77538152 14.50844621 1.80106403 7.26857983 0 0 Z " fill="#C3C8B9" transform="translate(361,174)"/>
<path d="M0 0 C1.32 0.33 2.64 0.66 4 1 C4 3.97 4 6.94 4 10 C3.67 8.68 3.34 7.36 3 6 C2.34 6 1.68 6 1 6 C1 11.61 1 17.22 1 23 C0.67 23 0.34 23 0 23 C0 15.41 0 7.82 0 0 Z " fill="#C9CDC1" transform="translate(307,169)"/>
<path d="M0 0 C0.66 0.33 1.32 0.66 2 1 C-2.32893185 6.18419194 -6.76564995 10.72706118 -12 15 C-12 10.39852874 -9.10228152 8.19311408 -6 5 C-4.05341967 3.24193983 -2.06456557 1.62215867 0 0 Z " fill="#E6E7E1" transform="translate(158,143)"/>
<path d="M0 0 C0.33 0 0.66 0 1 0 C1.22682931 4.20754921 1.42818993 8.41594824 1.625 12.625 C1.68945312 13.81480469 1.75390625 15.00460937 1.8203125 16.23046875 C1.871875 17.38417969 1.9234375 18.53789062 1.9765625 19.7265625 C2.02893066 20.78439941 2.08129883 21.84223633 2.13525391 22.93212891 C1.98782329 26.27619596 1.19516693 28.88767111 0 32 C-0.33 32 -0.66 32 -1 32 C-0.67 21.44 -0.34 10.88 0 0 Z " fill="#A2AB95" transform="translate(323,271)"/>
<path d="M0 0 C2.08343904 2.50012684 3.71433305 5.14195318 5.25 8 C5.60578125 8.66 5.9615625 9.32 6.328125 10 C7.13384316 12.39841683 6.81998065 13.64518377 6 16 C4.9901527 14.08850332 3.99245505 12.17058431 3 10.25 C2.443125 9.18265625 1.88625 8.1153125 1.3125 7.015625 C0 4 0 4 0 0 Z " fill="#B5BBA8" transform="translate(447,143)"/>
<path d="M0 0 C0.55171875 0.22558594 1.1034375 0.45117188 1.671875 0.68359375 C-0.28143368 1.71400888 -2.24094028 2.73268305 -4.203125 3.74609375 C-5.29367187 4.31457031 -6.38421875 4.88304687 -7.5078125 5.46875 C-8.43851562 5.86964844 -9.36921875 6.27054687 -10.328125 6.68359375 C-10.988125 6.35359375 -11.648125 6.02359375 -12.328125 5.68359375 C-10.75465324 4.64762475 -9.16890954 3.63027643 -7.578125 2.62109375 C-6.69640625 2.05261719 -5.8146875 1.48414063 -4.90625 0.8984375 C-2.328125 -0.31640625 -2.328125 -0.31640625 0 0 Z " fill="#E3E5DE" transform="translate(362.328125,418.31640625)"/>
<path d="M0 0 C0.66 0.33 1.32 0.66 2 1 C-1.43535849 4.17175425 -4.15330091 4.45766505 -8.75 4.6875 C-9.92046875 4.75324219 -11.0909375 4.81898438 -12.296875 4.88671875 C-13.18890625 4.92410156 -14.0809375 4.96148437 -15 5 C-15 4.67 -15 4.34 -15 4 C-14.16855469 3.79503906 -13.33710938 3.59007812 -12.48046875 3.37890625 C-11.39378906 3.10949219 -10.30710937 2.84007812 -9.1875 2.5625 C-7.56908203 2.16224609 -7.56908203 2.16224609 -5.91796875 1.75390625 C-3.9259157 1.23922588 -1.95188476 0.65062825 0 0 Z " fill="#B6BDAB" transform="translate(274,360)"/>
<path d="M0 0 C0.66 0.33 1.32 0.66 2 1 C-0.79196011 4.28465896 -4.23196817 6.01321958 -8 8 C-8.66 8 -9.32 8 -10 8 C-10 7.34 -10 6.68 -10 6 C-9.36191406 5.65066406 -8.72382813 5.30132812 -8.06640625 4.94140625 C-7.24011719 4.48636719 -6.41382813 4.03132813 -5.5625 3.5625 C-4.73878906 3.11003906 -3.91507812 2.65757812 -3.06640625 2.19140625 C-1.07691202 1.16337603 -1.07691202 1.16337603 0 0 Z " fill="#D8DBD1" transform="translate(374,410)"/>
<path d="M0 0 C0.66 0 1.32 0 2 0 C3.11658501 4.68965706 2.80619523 7.53763531 1 12 C0.67 12 0.34 12 0 12 C0 8.04 0 4.08 0 0 Z " fill="#9BA58A" transform="translate(308,175)"/>
<path d="M0 0 C1.23593891 3.70781672 0.5678132 4.67510253 -0.9375 8.1875 C-1.31777344 9.08855469 -1.69804687 9.98960937 -2.08984375 10.91796875 C-2.54037109 11.94857422 -2.54037109 11.94857422 -3 13 C-3.33 13 -3.66 13 -4 13 C-4.63934602 7.88523181 -2.40533547 4.32745622 0 0 Z " fill="#E4E6DF" transform="translate(458,308)"/>
<path d="M0 0 C0.9659657 2.60810739 1.02770914 3.89420147 0.3125 6.625 C-1.16625774 9.30084735 -2.17750049 9.96508351 -5 11 C-3.55049545 7.2089881 -1.84827434 3.6125362 0 0 Z " fill="#B3BBA8" transform="translate(364,193)"/>
<path d="M0 0 C1.48117801 0.28127421 2.95993249 0.57533732 4.4375 0.875 C5.67306641 1.11863281 5.67306641 1.11863281 6.93359375 1.3671875 C7.61550781 1.57601563 8.29742187 1.78484375 9 2 C9.33 2.66 9.66 3.32 10 4 C5.78121808 4.19622241 2.82989106 3.80230168 -1 2 C-0.67 1.34 -0.34 0.68 0 0 Z " fill="#B1B7A6" transform="translate(227,338)"/>
<path d="M0 0 C0.99 0.33 1.98 0.66 3 1 C3 3.97 3 6.94 3 10 C2.67 8.68 2.34 7.36 2 6 C1.34 6 0.68 6 0 6 C0 4.02 0 2.04 0 0 Z " fill="#BFC2B3" transform="translate(308,169)"/>
<path d="M0 0 C0.33 0.99 0.66 1.98 1 3 C-0.8125 5.6875 -0.8125 5.6875 -3 8 C-3.66 8 -4.32 8 -5 8 C-3.62845496 5.04590299 -2.01136276 2.55991624 0 0 Z " fill="#DADDD4" transform="translate(427,363)"/>
<path d="M0 0 C0.66 0 1.32 0 2 0 C0.84414715 3.91211733 -0.35534962 6.8745041 -3 10 C-2.49287967 6.28111761 -1.88391785 3.26545761 0 0 Z " fill="#AAB199" transform="translate(184,202)"/>
<path d="M0 0 C2.64 0.33 5.28 0.66 8 1 C8 1.66 8 2.32 8 3 C8.66 3.33 9.32 3.66 10 4 C6.28111761 3.49287967 3.26545761 2.88391785 0 1 C0 0.67 0 0.34 0 0 Z " fill="#B9BFAD" transform="translate(219,347)"/>
</svg>
